# xmcd CD database file
#
# Track frame offsets:
#	182
#	18120
#	39772
#	61745
#	77542
#	94942
#	123435
#	156277
#	180825
#	202052
#	223657
#
# Disc length: 3170 seconds
#
# Revision: 1
# Processed by: cddbd v1.4PL0 Copyright (c) Steve Scherf et al.
# Submitted via: CDex 1.50beta10
#
DISCID=820c600b
DTITLE=J. B. Hutto And The New Hawks - Keeper Of The Flame
DYEAR=1980
DGENRE=Blues
TTITLE0=You Don't Love Me
TTITLE1=Love Retirement
TTITLE2=Summertime
TTITLE3=Fifteen Cent Phone Call
TTITLE4=Dim Lights
TTITLE5=Let Me Love You
TTITLE6=Tumbleweed
TTITLE7=The Sky Is Crying
TTITLE8=Please Don't Leave Me
TTITLE9=Baby How Long
TTITLE10=No Good Man
EXTD=YEAR: 1980
EXTT0=
EXTT1=
EXTT2=
EXTT3=
EXTT4=
EXTT5=
EXTT6=
EXTT7=
EXTT8=
EXTT9=
EXTT10=
PLAYORDER=
